<svg width="129" height="52" viewBox="0 0 129 52" fill="none" xmlns="http://www.w3.org/2000/svg">
<path fill-rule="evenodd" clip-rule="evenodd" d="M0.261263 32.5497C0.209135 35.3627 0.748497 37.4671 3.35514 38.9052C4.49655 39.8465 5.6327 40.7855 6.76558 41.7219L6.76873 41.7245L6.77401 41.7288C10.5306 44.8337 14.2514 47.909 18.0091 50.9384C18.6491 51.4544 19.6101 51.835 20.4229 51.836C52.0943 51.8752 83.7658 51.8746 115.437 51.874L126.913 51.8738L128.433 51.8738C128.442 51.8093 128.451 51.7523 128.459 51.7011L128.471 51.6233L128.476 51.5928C128.497 51.4635 128.511 51.377 128.511 51.2905C128.512 49.7678 128.512 48.2451 128.513 46.7224C128.517 36.7651 128.521 26.8078 128.478 16.8507C128.476 16.3031 128.049 15.6048 127.605 15.2346C122.004 10.5635 116.377 5.92276 110.711 1.33031C110.142 0.869762 109.277 0.545233 108.55 0.54446C73.9401 0.507718 39.3303 0.510885 4.72047 0.514053L1.77177 0.514322C1.465 0.514349 1.15823 0.534603 0.830724 0.556226C0.671048 0.566768 0.506444 0.577636 0.334507 0.586643L0.334508 2.29004C0.334508 5.05762 0.343061 7.82535 0.351614 10.5931C0.374234 17.9129 0.396854 25.2328 0.261263 32.5497ZM5.33364 17.2957C5.33286 15.6912 5.33207 14.0868 5.33207 12.4824L5.33206 5.45328H7.00445L18.596 5.4531C47.9216 5.45238 77.2472 5.45167 106.573 5.49273C107.429 5.49393 108.442 5.88532 109.116 6.42645C113.716 10.1227 118.255 13.8949 122.778 17.6863C123.186 18.0286 123.569 18.6777 123.572 19.1863C123.612 26.963 123.608 34.7399 123.604 42.5168L123.602 44.5597L123.602 46.2756C123.602 46.3929 123.585 46.5102 123.564 46.6619V46.662C123.552 46.7449 123.539 46.838 123.526 46.947H122.078L111.233 46.9471H111.223C81.556 46.9477 51.8888 46.9482 22.2216 46.9129C21.4501 46.912 20.5318 46.5846 19.9315 46.1003C17.4623 44.1086 15.0156 42.0891 12.5689 40.0696C10.4639 38.3321 8.35892 36.5947 6.2396 34.8749C5.5146 34.2866 5.31116 33.6809 5.31517 32.7995C5.33871 27.6316 5.33617 22.4636 5.33364 17.2957ZM30.7546 30.803V22.1476C30.7531 21.8855 30.7543 21.638 30.7555 21.4006V21.4003V21.4001V21.3998V21.3996C30.758 20.8999 30.7603 20.4446 30.736 19.9907C30.4461 14.5723 26.0672 10.3384 20.5985 10.1766C15.2699 10.0189 10.5651 14.1165 10.0393 19.3728C9.47926 24.9713 13.0225 30.0864 18.4828 30.713C21.2433 31.0298 24.049 30.9524 26.8938 30.8738C28.173 30.8385 29.4601 30.803 30.7546 30.803ZM19.4955 15.1911C22.047 14.8059 24.2253 16.0465 25.3806 18.5428C25.6623 21.109 25.8256 23.4791 26.0139 26.2113C25.1543 26.1501 24.3162 26.1208 23.498 26.0921H23.498C21.6978 26.029 19.994 25.9693 18.3683 25.5817C15.9138 24.9963 14.6367 22.3583 14.9645 19.777C15.2514 17.5181 17.2095 15.5362 19.4955 15.1911ZM72.9114 29.0336L72.9114 31.193C71.5754 31.1431 70.2439 31.1255 68.9186 31.1079C65.9427 31.0686 62.9983 31.0297 60.1048 30.6261C55.2089 29.9433 51.8412 24.983 52.152 19.8265C52.4548 14.801 56.5262 10.6592 61.5862 10.229C66.7134 9.79315 71.4562 13.1182 72.5645 17.9888C72.7959 19.0059 72.8778 20.0729 72.8963 21.1193C72.9289 22.9588 72.9228 24.799 72.9165 26.69V26.6911V26.6934V26.6957V26.698C72.914 27.467 72.9114 28.2444 72.9114 29.0336ZM65.8541 16.2887C65.6683 16.1913 65.4854 16.0856 65.3024 15.9799C64.9053 15.7506 64.5082 15.5212 64.0824 15.3765C61.1742 14.3884 58.0437 16.2164 57.2205 19.3404C56.4725 22.1793 58.4257 25.496 61.3183 25.846C62.8051 26.0259 64.3189 25.9822 65.8603 25.9377H65.8604H65.8605H65.8606C66.5549 25.9176 67.2548 25.8974 67.9604 25.8974C67.9604 25.3909 67.9569 24.8866 67.9536 24.3838C67.9459 23.2502 67.9383 22.1247 67.9699 21.0002C68.0216 19.1586 67.4194 17.6256 65.8541 16.2887ZM53.0784 10.5246L50.9308 10.5246C50.727 10.5246 50.5369 10.532 50.3569 10.539C49.9919 10.5532 49.6684 10.5658 49.3563 10.5118C47.9754 10.2732 47.3199 10.9014 46.8356 12.1604C46.2877 13.5846 45.6276 14.966 44.9677 16.347C44.7392 16.8252 44.5108 17.3033 44.287 17.7831C43.674 19.0975 43.0522 20.4078 42.3991 21.7838L42.3969 21.7885L42.3925 21.7978C42.1001 22.4139 41.8015 23.0432 41.4946 23.6919C41.3837 23.4811 41.2881 23.3042 41.204 23.1485C41.0511 22.8656 40.936 22.6526 40.8356 22.4329C40.3767 21.4297 39.9197 20.4257 39.4627 19.4217L39.4622 19.4205L39.4617 19.4194C38.2732 16.8084 37.0848 14.1974 35.8639 11.6017C35.658 11.164 35.1467 10.607 34.7391 10.5741C33.6437 10.4857 32.5401 10.4996 31.3879 10.5141H31.3878C30.9457 10.5196 30.4964 10.5253 30.0377 10.5253C30.0936 10.6743 30.1416 10.8085 30.1858 10.9321L30.1858 10.9321C30.2706 11.1695 30.3417 11.3682 30.4291 11.5594C31.1782 13.1973 31.9395 14.83 32.7009 16.4627L32.7011 16.4631L32.7011 16.4632C34.5497 20.4274 36.3983 24.3916 38.0704 28.4289C38.9957 30.6628 40.141 31.5565 42.4838 31.196C43.2217 31.0824 43.656 30.9742 43.9856 30.2342C44.9735 28.0166 46.0004 25.8164 47.0273 23.6162C47.4782 22.6502 47.9291 21.6842 48.3767 20.7167C49.4447 18.408 50.5094 16.0978 51.6029 13.7253L51.6042 13.7225C52.089 12.6705 52.5795 11.6063 53.0784 10.5246ZM93.4918 11.8296L93.4918 15.0868H86.1413V31.0802H81.1392V15.189H73.7816V10.2362H93.4232L93.4232 10.237L93.4234 10.2413C93.4482 10.7679 93.47 11.2325 93.4918 11.8296ZM96.2997 31.1562L98.52 31.1562H101.093V10.1543H96.2997V31.1562Z" fill="white"/>
</svg>